<?xml version="1.0" encoding="iso-8859-1"?>
<!-- Generator: Adobe Illustrator 19.0.0, SVG Export Plug-In . SVG Version: 6.00 Build 0)  -->
<svg version="1.1" id="Layer_1" xmlns="http://www.w3.org/2000/svg" xmlns:xlink="http://www.w3.org/1999/xlink" x="0px" y="0px"
	 viewBox="0 0 512.001 512.001" style="enable-background:new 0 0 512.001 512.001;" xml:space="preserve">
<circle style="fill:#16C6CC;" cx="259.567" cy="256.001" r="252.43"/>
<path style="fill:#21D8DE;" d="M454.128,95.156l-20.997,33.23l-71.105,39.407l-71.053-40.529l-71.105,26.26l-75.837,55.469
	l-66.315-2.402L9.861,293.118c4.07,27.608,12.596,53.766,24.846,77.706h449.724c17.626-34.446,27.57-73.475,27.57-114.827
	C512,194.876,490.275,138.83,454.128,95.156z"/>
<g>
	<rect x="28.541" y="331.159" style="fill:#FFFFFF;" width="21.952" height="39.654"/>
	<rect x="60.362" y="300.291" style="fill:#FFFFFF;" width="21.942" height="70.521"/>
	<rect x="92.184" y="312.367" style="fill:#FFFFFF;" width="21.942" height="58.445"/>
	<rect x="124.006" y="291.507" style="fill:#FFFFFF;" width="21.949" height="79.299"/>
	<rect x="155.819" y="270.376" style="fill:#FFFFFF;" width="21.946" height="100.436"/>
	<rect x="187.631" y="309.888" style="fill:#FFFFFF;" width="21.949" height="60.918"/>
	<rect x="219.463" y="288.495" style="fill:#FFFFFF;" width="21.946" height="82.316"/>
	<rect x="251.285" y="265.718" style="fill:#FFFFFF;" width="21.939" height="105.094"/>
	<rect x="283.098" y="277.242" style="fill:#FFFFFF;" width="21.942" height="93.569"/>
	<rect x="314.92" y="247.608" style="fill:#FFFFFF;" width="21.946" height="123.203"/>
	<rect x="346.732" y="319.354" style="fill:#FFFFFF;" width="21.952" height="51.448"/>
	<rect x="378.564" y="269.141" style="fill:#FFFFFF;" width="21.939" height="101.661"/>
	<rect x="410.377" y="235.261" style="fill:#FFFFFF;" width="21.946" height="135.551"/>
	<rect x="442.199" y="224.008" style="fill:#FFFFFF;" width="21.942" height="146.794"/>
</g>
<g>
	<rect x="28.541" y="316.925" style="fill:#FF6D3B;" width="21.952" height="14.205"/>
	<rect x="60.362" y="255.217" style="fill:#FF6D3B;" width="21.942" height="45.072"/>
	<rect x="92.184" y="269.141" style="fill:#FF6D3B;" width="21.942" height="43.216"/>
	<rect x="124.006" y="261.532" style="fill:#FF6D3B;" width="21.949" height="29.975"/>
	<rect x="155.819" y="218.657" style="fill:#FF6D3B;" width="21.946" height="51.719"/>
	<rect x="187.631" y="274.431" style="fill:#FF6D3B;" width="21.949" height="35.456"/>
	<rect x="219.463" y="231.627" style="fill:#FF6D3B;" width="21.946" height="56.868"/>
	<rect x="251.285" y="212.001" style="fill:#FF6D3B;" width="21.939" height="53.716"/>
	<rect x="283.098" y="203.669" style="fill:#FF6D3B;" width="21.942" height="73.573"/>
	<rect x="314.92" y="190.288" style="fill:#FF6D3B;" width="21.946" height="57.32"/>
	<rect x="346.732" y="236.837" style="fill:#FF6D3B;" width="21.952" height="82.517"/>
	<rect x="378.564" y="192.938" style="fill:#FF6D3B;" width="21.939" height="76.214"/>
	<rect x="410.377" y="174.548" style="fill:#FF6D3B;" width="21.946" height="60.713"/>
	<rect x="442.199" y="128.38" style="fill:#FF6D3B;" width="21.942" height="95.627"/>
</g>
<polygon style="fill:#242D3C;" points="485.531,371.217 6.044,371.217 6.044,74.051 7.137,74.051 7.137,370.396 485.531,370.396 "/>
<rect id="SVGCleanerId_0" y="337.474" style="fill:#242D3C;" width="6.584" height="0.818"/>
<g>
	<rect id="SVGCleanerId_0_1_" y="337.474" style="fill:#242D3C;" width="6.584" height="0.818"/>
</g>
<rect id="SVGCleanerId_1" y="304.547" style="fill:#242D3C;" width="6.584" height="0.825"/>
<g>
	<rect id="SVGCleanerId_1_1_" y="304.547" style="fill:#242D3C;" width="6.584" height="0.825"/>
</g>
<rect id="SVGCleanerId_2" y="271.61" style="fill:#242D3C;" width="6.584" height="0.822"/>
<g>
	<rect id="SVGCleanerId_2_1_" y="271.61" style="fill:#242D3C;" width="6.584" height="0.822"/>
</g>
<rect id="SVGCleanerId_3" y="238.694" style="fill:#242D3C;" width="6.584" height="0.818"/>
<g>
	<rect id="SVGCleanerId_3_1_" y="238.694" style="fill:#242D3C;" width="6.584" height="0.818"/>
</g>
<rect id="SVGCleanerId_4" y="205.757" style="fill:#242D3C;" width="6.584" height="0.828"/>
<g>
	<rect id="SVGCleanerId_4_1_" y="205.757" style="fill:#242D3C;" width="6.584" height="0.828"/>
</g>
<rect id="SVGCleanerId_5" y="172.831" style="fill:#242D3C;" width="6.584" height="0.818"/>
<g>
	<rect id="SVGCleanerId_5_1_" y="172.831" style="fill:#242D3C;" width="6.584" height="0.818"/>
</g>
<rect id="SVGCleanerId_6" y="139.904" style="fill:#242D3C;" width="6.584" height="0.828"/>
<g>
	<rect id="SVGCleanerId_6_1_" y="139.904" style="fill:#242D3C;" width="6.584" height="0.828"/>
</g>
<rect id="SVGCleanerId_7" y="106.978" style="fill:#242D3C;" width="6.584" height="0.828"/>
<g>
	<rect id="SVGCleanerId_7_1_" y="106.978" style="fill:#242D3C;" width="6.584" height="0.828"/>
</g>
<rect id="SVGCleanerId_8" y="74.051" style="fill:#242D3C;" width="6.584" height="0.822"/>
<g>
	<rect id="SVGCleanerId_8_1_" y="74.051" style="fill:#242D3C;" width="6.584" height="0.822"/>
</g>
<rect id="SVGCleanerId_9" x="70.792" y="370.812" style="fill:#242D3C;" width="1.093" height="4.937"/>
<rect x="38.965" y="370.812" style="fill:#242D3C;" width="1.097" height="4.937"/>
<rect id="SVGCleanerId_10" x="102.614" y="370.812" style="fill:#242D3C;" width="1.097" height="4.937"/>
<g>
	<rect id="SVGCleanerId_9_1_" x="70.792" y="370.812" style="fill:#242D3C;" width="1.093" height="4.937"/>
</g>
<rect id="SVGCleanerId_11" x="134.426" y="370.812" style="fill:#242D3C;" width="1.1" height="4.937"/>
<g>
	<rect id="SVGCleanerId_10_1_" x="102.614" y="370.812" style="fill:#242D3C;" width="1.097" height="4.937"/>
</g>
<rect id="SVGCleanerId_12" x="166.239" y="370.812" style="fill:#242D3C;" width="1.1" height="4.937"/>
<g>
	<rect id="SVGCleanerId_11_1_" x="134.426" y="370.812" style="fill:#242D3C;" width="1.1" height="4.937"/>
</g>
<rect id="SVGCleanerId_13" x="198.071" y="370.812" style="fill:#242D3C;" width="1.097" height="4.937"/>
<g>
	<rect id="SVGCleanerId_12_1_" x="166.239" y="370.812" style="fill:#242D3C;" width="1.1" height="4.937"/>
</g>
<rect id="SVGCleanerId_14" x="229.883" y="370.812" style="fill:#242D3C;" width="1.097" height="4.937"/>
<g>
	<rect id="SVGCleanerId_13_1_" x="198.071" y="370.812" style="fill:#242D3C;" width="1.097" height="4.937"/>
</g>
<rect id="SVGCleanerId_15" x="261.705" y="370.812" style="fill:#242D3C;" width="1.1" height="4.937"/>
<g>
	<rect id="SVGCleanerId_14_1_" x="229.883" y="370.812" style="fill:#242D3C;" width="1.097" height="4.937"/>
</g>
<rect id="SVGCleanerId_16" x="293.528" y="370.812" style="fill:#242D3C;" width="1.09" height="4.937"/>
<g>
	<rect id="SVGCleanerId_15_1_" x="261.705" y="370.812" style="fill:#242D3C;" width="1.1" height="4.937"/>
</g>
<rect id="SVGCleanerId_17" x="325.34" y="370.812" style="fill:#242D3C;" width="1.1" height="4.937"/>
<g>
	<rect id="SVGCleanerId_16_1_" x="293.528" y="370.812" style="fill:#242D3C;" width="1.09" height="4.937"/>
</g>
<rect id="SVGCleanerId_18" x="357.172" y="370.812" style="fill:#242D3C;" width="1.093" height="4.937"/>
<g>
	<rect id="SVGCleanerId_17_1_" x="325.34" y="370.812" style="fill:#242D3C;" width="1.1" height="4.937"/>
</g>
<rect id="SVGCleanerId_19" x="388.984" y="370.812" style="fill:#242D3C;" width="1.097" height="4.937"/>
<g>
	<rect id="SVGCleanerId_18_1_" x="357.172" y="370.812" style="fill:#242D3C;" width="1.093" height="4.937"/>
</g>
<rect id="SVGCleanerId_20" x="420.807" y="370.812" style="fill:#242D3C;" width="1.097" height="4.937"/>
<g>
	<rect id="SVGCleanerId_19_1_" x="388.984" y="370.812" style="fill:#242D3C;" width="1.097" height="4.937"/>
</g>
<rect id="SVGCleanerId_21" x="452.629" y="370.812" style="fill:#242D3C;" width="1.097" height="4.937"/>
<g>
	<rect id="SVGCleanerId_20_1_" x="420.807" y="370.812" style="fill:#242D3C;" width="1.097" height="4.937"/>
</g>
<g>
	<rect id="SVGCleanerId_21_1_" x="452.629" y="370.812" style="fill:#242D3C;" width="1.097" height="4.937"/>
</g>
<g>
	<rect x="28.541" y="371.243" style="fill:#06B2B8;" width="21.952" height="25.072"/>
	<rect x="60.362" y="371.243" style="fill:#06B2B8;" width="21.942" height="44.591"/>
	<rect x="92.184" y="371.243" style="fill:#06B2B8;" width="21.942" height="36.949"/>
	<rect x="124.006" y="371.243" style="fill:#06B2B8;" width="21.949" height="50.142"/>
	<rect x="155.819" y="371.243" style="fill:#06B2B8;" width="21.946" height="63.494"/>
	<rect x="187.631" y="371.243" style="fill:#06B2B8;" width="21.949" height="38.508"/>
	<rect x="219.463" y="371.243" style="fill:#06B2B8;" width="21.946" height="52.05"/>
	<rect x="251.285" y="371.243" style="fill:#06B2B8;" width="21.939" height="66.445"/>
	<rect x="283.098" y="371.243" style="fill:#06B2B8;" width="21.942" height="59.163"/>
	<rect x="314.92" y="371.243" style="fill:#06B2B8;" width="21.946" height="77.899"/>
	<rect x="346.732" y="371.243" style="fill:#06B2B8;" width="21.952" height="32.534"/>
	<rect x="378.564" y="371.243" style="fill:#06B2B8;" width="21.939" height="64.277"/>
	<rect x="410.377" y="371.243" style="fill:#06B2B8;" width="21.946" height="85.699"/>
	<rect x="442.199" y="371.243" style="fill:#06B2B8;" width="21.942" height="92.817"/>
</g>
<g>
</g>
<g>
</g>
<g>
</g>
<g>
</g>
<g>
</g>
<g>
</g>
<g>
</g>
<g>
</g>
<g>
</g>
<g>
</g>
<g>
</g>
<g>
</g>
<g>
</g>
<g>
</g>
<g>
</g>
</svg>
